<?xml version="1.0" standalone="no"?>
<!DOCTYPE svg PUBLIC "-//W3C//DTD SVG 20010904//EN"
 "http://www.w3.org/TR/2001/REC-SVG-20010904/DTD/svg10.dtd">
<svg version="1.0" xmlns="http://www.w3.org/2000/svg"
 width="526.000000pt" height="475.000000pt" viewBox="0 0 526.000000 475.000000"
 preserveAspectRatio="xMidYMid meet">

<g transform="translate(0.000000,475.000000) scale(0.100000,-0.100000)"
fill="#000000" stroke="none">
<path d="M2850 4516 c-141 -41 -223 -148 -223 -291 0 -78 17 -126 63 -185 16
-21 30 -42 30 -47 0 -5 -77 -85 -171 -178 -123 -123 -174 -166 -183 -160 -56
43 -118 77 -163 90 l-54 16 3 122 3 121 41 16 c59 22 91 46 119 88 89 135 -13
322 -175 322 -144 0 -240 -136 -200 -282 14 -49 78 -111 132 -127 24 -7 46
-18 50 -25 4 -6 8 -61 8 -123 l0 -112 -48 -15 c-77 -22 -127 -52 -168 -99 -72
-82 -93 -197 -55 -296 19 -47 19 -50 2 -65 -10 -9 -20 -16 -24 -16 -3 0 -45
-18 -92 -40 -47 -22 -88 -40 -90 -40 -1 0 -65 -30 -141 -66 -143 -68 -204 -87
-204 -64 0 7 -18 35 -40 63 l-40 50 36 66 c178 325 176 322 209 321 76 -4 103
1 148 31 65 43 102 119 94 193 -18 181 -241 259 -361 126 -21 -23 -42 -61 -51
-92 -21 -75 -2 -142 61 -204 24 -25 44 -48 44 -53 0 -4 -30 -61 -66 -127 -36
-65 -82 -147 -101 -181 -18 -35 -40 -63 -47 -63 -7 0 -28 8 -47 17 -54 27
-171 24 -232 -7 -130 -65 -197 -196 -167 -327 34 -156 170 -254 330 -239 l66
6 43 -83 c23 -45 78 -153 122 -240 l80 -157 -45 -50 c-24 -28 -51 -70 -59 -93
-17 -52 -36 -56 -132 -25 l-70 23 -6 60 c-10 103 -62 175 -148 204 -74 24
-149 6 -209 -52 -48 -46 -64 -82 -65 -146 -1 -122 87 -211 208 -211 67 0 119
24 163 74 17 20 37 36 44 36 7 0 52 -10 100 -22 l87 -22 6 -41 c14 -88 38
-139 92 -196 l53 -56 -57 -74 c-31 -41 -61 -77 -67 -81 -6 -4 -27 3 -46 15
-51 31 -170 31 -222 -1 -85 -53 -122 -171 -83 -264 16 -41 74 -94 121 -114 94
-40 215 9 264 107 24 46 26 132 5 173 -24 46 -18 63 47 148 l62 80 40 -7 c23
-4 59 -10 81 -14 l40 -6 16 -85 c9 -47 24 -130 33 -185 9 -55 21 -120 26 -145
5 -25 12 -66 16 -92 l6 -47 -50 -25 c-71 -36 -135 -111 -156 -184 -21 -76 -20
-120 3 -182 27 -70 78 -130 142 -165 48 -26 63 -30 139 -29 95 0 140 17 210
80 l39 35 43 -19 c82 -38 253 -114 298 -133 116 -51 114 -49 116 -111 3 -112
82 -197 189 -206 224 -18 321 263 132 385 -36 24 -52 28 -112 27 -80 0 -109
-14 -166 -77 l-36 -41 -89 39 c-49 21 -118 51 -154 67 -228 103 -211 87 -182
172 19 57 -9 45 287 116 94 22 184 45 200 50 17 5 51 12 75 15 43 5 46 4 75
-36 17 -24 54 -56 85 -73 50 -28 63 -31 145 -31 88 0 122 9 176 47 14 9 35 -5
128 -83 99 -83 111 -97 106 -119 -19 -78 -16 -115 12 -170 70 -136 251 -161
348 -47 57 67 70 148 35 225 -62 138 -221 165 -352 61 l-27 -22 -100 89 c-56
49 -101 92 -101 97 0 5 16 35 36 67 l35 58 107 -4 c59 -3 179 -9 267 -14 88
-5 231 -13 318 -16 174 -8 166 -5 181 -75 9 -43 65 -109 109 -130 79 -35 179
-19 240 39 122 115 56 324 -111 356 -90 16 -195 -43 -233 -132 l-19 -44 -103
6 c-56 4 -136 9 -177 11 -41 3 -185 10 -319 15 -144 6 -247 14 -251 20 -4 6
-7 41 -8 78 l-2 68 127 74 c152 89 172 100 185 100 6 0 25 -13 44 -29 132
-117 344 -17 344 162 0 67 -18 112 -62 154 -74 72 -170 83 -258 31 -87 -53
-114 -119 -96 -244 l8 -51 -74 -41 c-151 -85 -184 -104 -205 -118 -25 -15 -28
-13 -73 49 -53 73 -162 123 -254 115 -70 -6 -157 -49 -201 -100 -63 -74 -69
-93 -70 -207 l-1 -104 -65 -17 c-118 -32 -413 -101 -455 -107 l-41 -5 -13 53
c-7 30 -26 73 -41 97 -16 24 -29 50 -29 58 0 8 19 41 42 72 23 31 44 59 45 61
2 3 37 5 77 6 120 3 196 61 216 165 16 82 1 131 -58 192 -100 105 -270 78
-336 -53 -43 -87 -30 -172 36 -240 21 -21 38 -44 38 -50 0 -16 -83 -129 -94
-129 -6 0 -33 11 -61 25 -32 16 -68 25 -100 25 -27 0 -57 4 -65 10 -13 8 -24
53 -49 215 -6 33 -21 119 -34 192 -23 124 -23 133 -7 148 9 8 22 15 28 15 19
0 84 44 119 81 76 81 97 220 47 324 -47 100 -160 175 -262 175 -20 0 -62 -7
-94 -16 -35 -10 -62 -13 -67 -8 -20 22 -231 445 -231 463 0 11 14 28 33 39 17
12 46 36 63 56 l31 35 49 -15 c27 -8 70 -20 96 -25 26 -6 51 -16 56 -22 5 -7
12 -38 14 -70 13 -168 228 -237 356 -114 84 80 83 208 -1 295 -42 44 -87 62
-156 62 -70 0 -137 -38 -176 -100 -14 -22 -27 -40 -30 -40 -2 0 -30 7 -62 16
-32 9 -73 19 -91 24 -19 5 -36 11 -39 14 -3 3 0 28 7 56 7 29 10 71 7 95 -6
54 -1 59 108 107 88 40 187 86 344 159 l103 49 47 -38 c69 -57 117 -74 203
-74 92 0 152 25 212 87 81 83 106 201 66 307 -11 29 -20 60 -20 68 0 8 24 38
53 65 28 28 107 104 174 169 l122 119 78 -26 78 -26 3 -79 3 -79 -55 -23
c-100 -40 -156 -130 -142 -229 21 -155 208 -233 335 -140 56 40 81 93 81 172
0 52 -5 71 -29 108 -30 48 -76 82 -124 95 -35 8 -42 26 -42 105 0 69 -1 68 85
94 l54 17 46 -49 c68 -73 335 -376 343 -390 4 -7 -5 -36 -20 -65 -24 -46 -28
-64 -27 -138 0 -67 4 -94 21 -126 35 -67 72 -103 136 -136 151 -76 340 -9 408
145 18 42 23 70 23 144 l1 92 48 31 c52 33 78 37 96 16 21 -25 100 -56 144
-56 64 0 139 41 176 97 27 40 31 56 31 113 0 58 -4 73 -32 115 -56 85 -166
117 -259 76 -100 -44 -140 -137 -116 -266 l8 -40 -50 -27 c-28 -16 -57 -28
-64 -28 -7 0 -29 19 -48 43 -20 23 -60 56 -90 72 -48 27 -63 30 -139 30 -73 0
-92 -4 -137 -27 -28 -15 -54 -32 -58 -38 -15 -25 -18 -22 -196 180 -208 236
-213 242 -203 255 56 75 77 101 87 106 7 4 48 1 92 -7 44 -7 118 -19 164 -25
82 -12 83 -12 98 -47 34 -82 115 -142 191 -142 92 0 189 76 211 166 10 38 9
56 -4 99 -29 100 -100 155 -200 155 -67 0 -119 -24 -163 -75 -32 -35 -45 -70
-51 -127 -1 -12 -36 -10 -161 11 -183 31 -168 22 -163 95 11 130 -49 241 -160
296 -73 35 -144 45 -207 26z"/>
</g>
</svg>
